G04 #@! TF.FileFunction,Profile,NP*
%FSLAX46Y46*%
G04 Gerber Fmt 4.6, Leading zero omitted, Abs format (unit mm)*
G04 Created by KiCad (PCBNEW 4.0.7-e2-6376~58~ubuntu16.04.1) date Wed Nov 29 21:12:47 2017*
%MOMM*%
%LPD*%
G01*
G04 APERTURE LIST*
%ADD10C,0.100000*%
%ADD11C,0.150000*%
G04 APERTURE END LIST*
D10*
D11*
X134797800Y-131927600D02*
X135305800Y-131648200D01*
X115011200Y-131953000D02*
X134797800Y-131927600D01*
X115087400Y-131343400D02*
X115011200Y-131953000D01*
X115316000Y-126111000D02*
X115087400Y-131343400D01*
X114427000Y-125755400D02*
X115316000Y-126111000D01*
X113817400Y-125501400D02*
X114427000Y-125755400D01*
X113792000Y-124536200D02*
X113817400Y-125501400D01*
X114325400Y-118770400D02*
X113792000Y-124536200D01*
X114884200Y-118262400D02*
X114325400Y-118770400D01*
X115951000Y-118135400D02*
X114884200Y-118262400D01*
X115366800Y-114579400D02*
X115951000Y-118135400D01*
X114655600Y-113944400D02*
X115366800Y-114579400D01*
X111455200Y-110794800D02*
X114655600Y-113944400D01*
X109397800Y-107315000D02*
X111455200Y-110794800D01*
X108839000Y-105867200D02*
X109397800Y-107315000D01*
X107213400Y-103505000D02*
X108839000Y-105867200D01*
X106324400Y-102997000D02*
X107213400Y-103505000D01*
X104216200Y-102006400D02*
X106324400Y-102997000D01*
X102158800Y-100584000D02*
X104216200Y-102006400D01*
X100634800Y-99415600D02*
X102158800Y-100584000D01*
X99517200Y-97866200D02*
X100634800Y-99415600D01*
X98475800Y-96037400D02*
X99517200Y-97866200D01*
X97663000Y-94183200D02*
X98475800Y-96037400D01*
X97510600Y-92735400D02*
X97663000Y-94183200D01*
X97358200Y-91313000D02*
X97510600Y-92735400D01*
X97307400Y-90220800D02*
X97358200Y-91313000D01*
X97053400Y-89712800D02*
X97307400Y-90220800D01*
X97104200Y-88976200D02*
X97053400Y-89712800D01*
X97358200Y-88188800D02*
X97104200Y-88976200D01*
X98501200Y-87731600D02*
X97358200Y-88188800D01*
X99517200Y-87909400D02*
X98501200Y-87731600D01*
X100787200Y-88595200D02*
X99517200Y-87909400D01*
X101498400Y-89890600D02*
X100787200Y-88595200D01*
X101777800Y-91084400D02*
X101498400Y-89890600D01*
X102387400Y-91998800D02*
X101777800Y-91084400D01*
X103378000Y-93853000D02*
X102387400Y-91998800D01*
X104114600Y-94615000D02*
X103378000Y-93853000D01*
X105613200Y-95631000D02*
X104114600Y-94615000D01*
X106400600Y-95631000D02*
X105613200Y-95631000D01*
X105537000Y-94716600D02*
X106400600Y-95631000D01*
X103505000Y-92176600D02*
X105537000Y-94716600D01*
X102463600Y-90754200D02*
X103505000Y-92176600D01*
X101625400Y-88849200D02*
X102463600Y-90754200D01*
X100660200Y-86664800D02*
X101625400Y-88849200D01*
X100380800Y-85267800D02*
X100660200Y-86664800D01*
X100076000Y-84175600D02*
X100380800Y-85267800D01*
X99364800Y-82499200D02*
X100076000Y-84175600D01*
X98526600Y-80924400D02*
X99364800Y-82499200D01*
X98348800Y-80162400D02*
X98526600Y-80924400D01*
X98399600Y-78943200D02*
X98348800Y-80162400D01*
X98983800Y-77978000D02*
X98399600Y-78943200D01*
X100126800Y-77266800D02*
X98983800Y-77978000D01*
X101193600Y-77190600D02*
X100126800Y-77266800D01*
X102209600Y-78105000D02*
X101193600Y-77190600D01*
X103809800Y-80111600D02*
X102209600Y-78105000D01*
X104851200Y-81661000D02*
X103809800Y-80111600D01*
X105486200Y-83083400D02*
X104851200Y-81661000D01*
X106705400Y-85217000D02*
X105486200Y-83083400D01*
X107340400Y-86537800D02*
X106705400Y-85217000D01*
X108534200Y-87782400D02*
X107340400Y-86537800D01*
X109677200Y-88950800D02*
X108534200Y-87782400D01*
X110388400Y-89458800D02*
X109677200Y-88950800D01*
X110972600Y-89535000D02*
X110388400Y-89458800D01*
X108305600Y-83820000D02*
X110972600Y-89535000D01*
X107238800Y-81432400D02*
X108305600Y-83820000D01*
X106908600Y-79578200D02*
X107238800Y-81432400D01*
X106756200Y-76962000D02*
X106908600Y-79578200D01*
X106603800Y-75971400D02*
X106756200Y-76962000D01*
X106070400Y-73025000D02*
X106603800Y-75971400D01*
X106121200Y-71374000D02*
X106070400Y-73025000D01*
X106299000Y-70815200D02*
X106121200Y-71374000D01*
X107594400Y-69977000D02*
X106299000Y-70815200D01*
X109042200Y-69926200D02*
X107594400Y-69977000D01*
X109829600Y-70231000D02*
X109042200Y-69926200D01*
X110871000Y-71323200D02*
X109829600Y-70231000D01*
X112293400Y-74599800D02*
X110871000Y-71323200D01*
X113461800Y-77063600D02*
X112293400Y-74599800D01*
X113588800Y-78613000D02*
X113461800Y-77063600D01*
X113665000Y-79730600D02*
X113588800Y-78613000D01*
X114350800Y-80822800D02*
X113665000Y-79730600D01*
X116052600Y-83540600D02*
X114350800Y-80822800D01*
X117297200Y-85191600D02*
X116052600Y-83540600D01*
X118033800Y-85369400D02*
X117297200Y-85191600D01*
X118414800Y-85115400D02*
X118033800Y-85369400D01*
X118897400Y-83870800D02*
X118414800Y-85115400D01*
X118694200Y-82651600D02*
X118897400Y-83870800D01*
X118567200Y-79933800D02*
X118694200Y-82651600D01*
X117957600Y-73025000D02*
X118567200Y-79933800D01*
X117652800Y-70637400D02*
X117957600Y-73025000D01*
X117398800Y-68300600D02*
X117652800Y-70637400D01*
X117449600Y-66929000D02*
X117398800Y-68300600D01*
X117830600Y-65481200D02*
X117449600Y-66929000D01*
X118668800Y-64592200D02*
X117830600Y-65481200D01*
X119684800Y-64084200D02*
X118668800Y-64592200D01*
X121107200Y-64439800D02*
X119684800Y-64084200D01*
X122555000Y-65963800D02*
X121107200Y-64439800D01*
X123418600Y-67995800D02*
X122555000Y-65963800D01*
X124180600Y-71069200D02*
X123418600Y-67995800D01*
X125044200Y-75107800D02*
X124180600Y-71069200D01*
X125907800Y-79629000D02*
X125044200Y-75107800D01*
X126288800Y-84124800D02*
X125907800Y-79629000D01*
X127025400Y-86487000D02*
X126288800Y-84124800D01*
X128473200Y-89839800D02*
X127025400Y-86487000D01*
X129260600Y-90957400D02*
X128473200Y-89839800D01*
X129768600Y-91821000D02*
X129260600Y-90957400D01*
X131368800Y-93421200D02*
X129768600Y-91821000D01*
X132181600Y-93624400D02*
X131368800Y-93421200D01*
X132334000Y-92176600D02*
X132181600Y-93624400D01*
X132156200Y-91490800D02*
X132334000Y-92176600D01*
X132054600Y-90881200D02*
X132156200Y-91490800D01*
X132029200Y-88468200D02*
X132054600Y-90881200D01*
X131749800Y-85775800D02*
X132029200Y-88468200D01*
X132308600Y-83693000D02*
X131749800Y-85775800D01*
X133832600Y-82245200D02*
X132308600Y-83693000D01*
X135458200Y-80975200D02*
X133832600Y-82245200D01*
X136271000Y-80899000D02*
X135458200Y-80975200D01*
X137439400Y-83693000D02*
X136271000Y-80899000D01*
X137261600Y-85217000D02*
X137439400Y-83693000D01*
X137998200Y-86588600D02*
X137261600Y-85217000D01*
X138811000Y-88646000D02*
X137998200Y-86588600D01*
X139065000Y-92176600D02*
X138811000Y-88646000D01*
X140055600Y-96418400D02*
X139065000Y-92176600D01*
X139801600Y-99568000D02*
X140055600Y-96418400D01*
X139014200Y-102743000D02*
X139801600Y-99568000D01*
X138252200Y-107492800D02*
X139014200Y-102743000D01*
X137388600Y-109702600D02*
X138252200Y-107492800D01*
X136220200Y-112268000D02*
X137388600Y-109702600D01*
X135763000Y-115976400D02*
X136220200Y-112268000D01*
X135280400Y-118338600D02*
X135763000Y-115976400D01*
X135432800Y-118846600D02*
X135280400Y-118338600D01*
X135813800Y-119430800D02*
X135432800Y-118846600D01*
X136017000Y-124790200D02*
X135813800Y-119430800D01*
X135991600Y-126390400D02*
X136017000Y-124790200D01*
X135458200Y-127000000D02*
X135991600Y-126390400D01*
X135483600Y-127558800D02*
X135458200Y-127000000D01*
X135458200Y-128828800D02*
X135483600Y-127558800D01*
X135483600Y-130225800D02*
X135458200Y-128828800D01*
X135305800Y-131648200D02*
X135483600Y-130225800D01*
M02*
