G04 #@! TF.FileFunction,Legend,Bot*
%FSLAX46Y46*%
G04 Gerber Fmt 4.6, Leading zero omitted, Abs format (unit mm)*
G04 Created by KiCad (PCBNEW 4.0.7-e2-6376~58~ubuntu16.04.1) date Wed Nov 29 21:12:47 2017*
%MOMM*%
%LPD*%
G01*
G04 APERTURE LIST*
%ADD10C,0.100000*%
%ADD11C,0.275000*%
%ADD12C,0.150000*%
%ADD13R,4.400000X4.400000*%
%ADD14C,3.200000*%
%ADD15C,2.200000*%
%ADD16R,2.200000X2.200000*%
G04 APERTURE END LIST*
D10*
D11*
X128817401Y-114669650D02*
X128267401Y-113717022D01*
X128273042Y-114983935D02*
X128367025Y-114203863D01*
X127723042Y-114031307D02*
X128581686Y-114261380D01*
X127475677Y-115383810D02*
X127592594Y-115376792D01*
X127774046Y-115272031D01*
X127838582Y-115174286D01*
X127831565Y-115057369D01*
X127622041Y-114694464D01*
X127524297Y-114629928D01*
X127407380Y-114636946D01*
X127225928Y-114741707D01*
X127161391Y-114839451D01*
X127168409Y-114956369D01*
X127220790Y-115047094D01*
X127726803Y-114875916D01*
X126772295Y-115003612D02*
X126912145Y-115769650D01*
X126318663Y-115265517D01*
X126322423Y-116110126D02*
X125955757Y-115475041D01*
X125772423Y-115157498D02*
X125843977Y-115176671D01*
X125824804Y-115248224D01*
X125753250Y-115229052D01*
X125772423Y-115157498D01*
X125824804Y-115248224D01*
X125502124Y-115736946D02*
X125868790Y-116372031D01*
X125554505Y-115827672D02*
X125482951Y-115808499D01*
X125366034Y-115815517D01*
X125229945Y-115894088D01*
X125165409Y-115991832D01*
X125172427Y-116108750D01*
X125460522Y-116607745D01*
X123549624Y-116440831D02*
X123368172Y-116545593D01*
X123303636Y-116643337D01*
X123265290Y-116786445D01*
X123324689Y-116994088D01*
X123508022Y-117311630D01*
X123658147Y-117466893D01*
X123801255Y-117505238D01*
X123918172Y-117498221D01*
X124099624Y-117393459D01*
X124164160Y-117295715D01*
X124202506Y-117152607D01*
X124143107Y-116944964D01*
X123959774Y-116627422D01*
X123809649Y-116472159D01*
X123666541Y-116433814D01*
X123549624Y-116440831D01*
X123302259Y-117793334D02*
X123237723Y-117891078D01*
X123056270Y-117995840D01*
X122939354Y-118002857D01*
X122841609Y-117938321D01*
X122815419Y-117892958D01*
X122808401Y-117776041D01*
X122872936Y-117678297D01*
X123009026Y-117599726D01*
X123073562Y-117501981D01*
X123066545Y-117385065D01*
X123040354Y-117339702D01*
X122942610Y-117275166D01*
X122825693Y-117282184D01*
X122689603Y-117360755D01*
X122625068Y-117458499D01*
X122511911Y-118310126D02*
X121961911Y-117357498D01*
X122171435Y-117720404D02*
X122054518Y-117727422D01*
X121873066Y-117832183D01*
X121808530Y-117929927D01*
X121789357Y-118001481D01*
X121796375Y-118118398D01*
X121953517Y-118390577D01*
X122051262Y-118455113D01*
X122122816Y-118474286D01*
X122239733Y-118467268D01*
X122421185Y-118362507D01*
X122485721Y-118264762D01*
X121513920Y-118886316D02*
X121578456Y-118788572D01*
X121597629Y-118717018D01*
X121590611Y-118600101D01*
X121433469Y-118327922D01*
X121335724Y-118263386D01*
X121264171Y-118244213D01*
X121147254Y-118251231D01*
X121011165Y-118329802D01*
X120946629Y-118427546D01*
X120927456Y-118499100D01*
X120934474Y-118616017D01*
X121091616Y-118888196D01*
X121189360Y-118952732D01*
X121260914Y-118971905D01*
X121377831Y-118964887D01*
X121513920Y-118886316D01*
X120788109Y-119305364D02*
X120421442Y-118670279D01*
X120526204Y-118851732D02*
X120428460Y-118787196D01*
X120356906Y-118768023D01*
X120239989Y-118775041D01*
X120149263Y-118827421D01*
X119831720Y-119010755D02*
X120198387Y-119645840D01*
X119884101Y-119101481D02*
X119812548Y-119082308D01*
X119695631Y-119089326D01*
X119559542Y-119167897D01*
X119495006Y-119265641D01*
X119502023Y-119382559D01*
X119790118Y-119881554D01*
X133522368Y-114176034D02*
X132972368Y-113223406D01*
X133114099Y-114411748D02*
X132826004Y-113912753D01*
X132818987Y-113795836D01*
X132883523Y-113698092D01*
X133019612Y-113619521D01*
X133136529Y-113612503D01*
X133208083Y-113631676D01*
X132429890Y-113959997D02*
X132066984Y-114169521D01*
X132110467Y-113721025D02*
X132581895Y-114537563D01*
X132588913Y-114654480D01*
X132524377Y-114752225D01*
X132433650Y-114804606D01*
X131885532Y-114274282D02*
X131522625Y-114483806D01*
X131566108Y-114035311D02*
X132037537Y-114851849D01*
X132044554Y-114968766D01*
X131980018Y-115066510D01*
X131889292Y-115118891D01*
X131205083Y-114667139D02*
X131755083Y-115619767D01*
X131231274Y-114712502D02*
X131114357Y-114719520D01*
X130932904Y-114824282D01*
X130868368Y-114922026D01*
X130849196Y-114993580D01*
X130856213Y-115110497D01*
X131013356Y-115382676D01*
X131111100Y-115447212D01*
X131182654Y-115466384D01*
X131299571Y-115459367D01*
X131481023Y-115354605D01*
X131545559Y-115256861D01*
X130657467Y-115709117D02*
X130638295Y-115780670D01*
X130709848Y-115799843D01*
X130729021Y-115728289D01*
X130657467Y-115709117D01*
X130709848Y-115799843D01*
X130369372Y-115210121D02*
X130350200Y-115281675D01*
X130421753Y-115300848D01*
X130440926Y-115229294D01*
X130369372Y-115210121D01*
X130421753Y-115300848D01*
X128999577Y-115456614D02*
X130523258Y-116209993D01*
X128001586Y-116032804D02*
X129525267Y-116786184D01*
X128260233Y-117214129D02*
X127710233Y-116261501D01*
X127919757Y-116624407D02*
X127802840Y-116631425D01*
X127621388Y-116736187D01*
X127556852Y-116833931D01*
X127537679Y-116905485D01*
X127544697Y-117022402D01*
X127701839Y-117294581D01*
X127799584Y-117359117D01*
X127871137Y-117378289D01*
X127988054Y-117371272D01*
X128169507Y-117266510D01*
X128234043Y-117168766D01*
X126990063Y-117947462D02*
X126701968Y-117448467D01*
X126694950Y-117331550D01*
X126759486Y-117233806D01*
X126940939Y-117129044D01*
X127057856Y-117122026D01*
X126963873Y-117902099D02*
X127080790Y-117895081D01*
X127307605Y-117764129D01*
X127372141Y-117666385D01*
X127365124Y-117549468D01*
X127312743Y-117458741D01*
X127214998Y-117394205D01*
X127098081Y-117401223D01*
X126871266Y-117532175D01*
X126754349Y-117539193D01*
X126400341Y-118287939D02*
X126464877Y-118190194D01*
X126457859Y-118073277D01*
X125986430Y-117256739D01*
X125629167Y-118733176D02*
X125079167Y-117780548D01*
X125602976Y-118687813D02*
X125719893Y-118680795D01*
X125901345Y-118576034D01*
X125965881Y-118478289D01*
X125985054Y-118406736D01*
X125978036Y-118289819D01*
X125820894Y-118017640D01*
X125723150Y-117953104D01*
X125651596Y-117933931D01*
X125534679Y-117940949D01*
X125353227Y-118045710D01*
X125288691Y-118143454D01*
X124899594Y-118307615D02*
X125084807Y-119047462D01*
X124641451Y-118698592D01*
X124721902Y-119256986D01*
X124173782Y-118726663D01*
X124177543Y-119571272D02*
X123810876Y-118936187D01*
X123627543Y-118618644D02*
X123699096Y-118637817D01*
X123679924Y-118709370D01*
X123608370Y-118690198D01*
X123627543Y-118618644D01*
X123679924Y-118709370D01*
X123743083Y-119761623D02*
X123678547Y-119859367D01*
X123497093Y-119964129D01*
X123380177Y-119971146D01*
X123282433Y-119906610D01*
X123256242Y-119861247D01*
X123249225Y-119744330D01*
X123313760Y-119646586D01*
X123449850Y-119568015D01*
X123514386Y-119470270D01*
X123507369Y-119353354D01*
X123481178Y-119307991D01*
X123383434Y-119243455D01*
X123266517Y-119250473D01*
X123130427Y-119329044D01*
X123065892Y-119426788D01*
X122544466Y-120514129D02*
X121994466Y-119561501D01*
X122518276Y-120468765D02*
X122635193Y-120461748D01*
X122816645Y-120356986D01*
X122881181Y-120259242D01*
X122900354Y-120187688D01*
X122893336Y-120070771D01*
X122736194Y-119798592D01*
X122638449Y-119734056D01*
X122566896Y-119714883D01*
X122449979Y-119721901D01*
X122268526Y-119826663D01*
X122203990Y-119924407D01*
X121954744Y-120854605D02*
X122019280Y-120756861D01*
X122038453Y-120685307D01*
X122031435Y-120568390D01*
X121874292Y-120296211D01*
X121776548Y-120231675D01*
X121704994Y-120212502D01*
X121588077Y-120219520D01*
X121451988Y-120298091D01*
X121387452Y-120395835D01*
X121368279Y-120467389D01*
X121375297Y-120584306D01*
X121532440Y-120856485D01*
X121630184Y-120921021D01*
X121701738Y-120940194D01*
X121818655Y-120933176D01*
X121954744Y-120854605D01*
X121228932Y-121273653D02*
X120862266Y-120638568D01*
X120914647Y-120729294D02*
X120843093Y-120710121D01*
X120726176Y-120717139D01*
X120590087Y-120795710D01*
X120525551Y-120893454D01*
X120532569Y-121010372D01*
X120820664Y-121509367D01*
X120532569Y-121010372D02*
X120434824Y-120945835D01*
X120317907Y-120952853D01*
X120181817Y-121031425D01*
X120117281Y-121129169D01*
X120124299Y-121246086D01*
X120412394Y-121745081D01*
X119906380Y-121916260D02*
X119887208Y-121987813D01*
X119958761Y-122006986D01*
X119977934Y-121935432D01*
X119906380Y-121916260D01*
X119958761Y-122006986D01*
X119070669Y-122459242D02*
X119187586Y-122452224D01*
X119369039Y-122347463D01*
X119433575Y-122249718D01*
X119452748Y-122178165D01*
X119445730Y-122061248D01*
X119288587Y-121789069D01*
X119190843Y-121724533D01*
X119119289Y-121705360D01*
X119002372Y-121712378D01*
X118820920Y-121817139D01*
X118756384Y-121914883D01*
X118552501Y-122818891D02*
X118617037Y-122721147D01*
X118636209Y-122649593D01*
X118629192Y-122532676D01*
X118472049Y-122260497D01*
X118374305Y-122195961D01*
X118302751Y-122176788D01*
X118185834Y-122183806D01*
X118049745Y-122262377D01*
X117985209Y-122360121D01*
X117966036Y-122431675D01*
X117973054Y-122548592D01*
X118130197Y-122820771D01*
X118227941Y-122885307D01*
X118299495Y-122904480D01*
X118416412Y-122897462D01*
X118552501Y-122818891D01*
X117826689Y-123237939D02*
X117460023Y-122602854D01*
X117512404Y-122693580D02*
X117440850Y-122674407D01*
X117323933Y-122681425D01*
X117187844Y-122759996D01*
X117123308Y-122857740D01*
X117130325Y-122974658D01*
X117418420Y-123473653D01*
X117130325Y-122974658D02*
X117032581Y-122910121D01*
X116915664Y-122917139D01*
X116779574Y-122995711D01*
X116715038Y-123093455D01*
X116722056Y-123210372D01*
X117010151Y-123709367D01*
D12*
X117350400Y-109606600D02*
G75*
G02X130350400Y-109606600I6500000J-4000000D01*
G01*
X117350400Y-97106600D02*
X130350400Y-97106600D01*
X114350400Y-98606600D02*
X117350400Y-97106600D01*
X114350400Y-107606600D02*
X117350400Y-109606600D01*
X114350400Y-98606600D02*
X114350400Y-107606600D01*
X114350400Y-107606600D02*
X117350400Y-109606600D01*
X114350400Y-98606600D02*
X114350400Y-107606600D01*
X114350400Y-98606600D02*
X117350400Y-97106600D01*
X133350400Y-99106600D02*
X130350400Y-97106600D01*
X133350400Y-108106600D02*
X133350400Y-99106600D01*
X133350400Y-108106600D02*
X130350400Y-109606600D01*
%LPC*%
D13*
X123850400Y-103606600D03*
D14*
X113050400Y-103606600D03*
X134650400Y-103606600D03*
D15*
X121462800Y-67995800D03*
D16*
X118922800Y-67995800D03*
D15*
X125552200Y-123088400D03*
D16*
X128092200Y-123088400D03*
M02*
