G04 #@! TF.FileFunction,Copper,L2,Bot,Signal*
%FSLAX46Y46*%
G04 Gerber Fmt 4.6, Leading zero omitted, Abs format (unit mm)*
G04 Created by KiCad (PCBNEW 4.0.7-e2-6376~58~ubuntu16.04.1) date Wed Nov 29 21:12:47 2017*
%MOMM*%
%LPD*%
G01*
G04 APERTURE LIST*
%ADD10C,0.100000*%
%ADD11R,4.000000X4.000000*%
%ADD12C,2.800000*%
%ADD13C,1.800000*%
%ADD14R,1.800000X1.800000*%
%ADD15C,0.250000*%
%ADD16C,0.254000*%
G04 APERTURE END LIST*
D10*
D11*
X123850400Y-103606600D03*
D12*
X113050400Y-103606600D03*
X134650400Y-103606600D03*
D13*
X121462800Y-67995800D03*
D14*
X118922800Y-67995800D03*
D13*
X125552200Y-123088400D03*
D14*
X128092200Y-123088400D03*
D15*
X122631200Y-101752400D02*
X125552200Y-104673400D01*
X125552200Y-104673400D02*
X125552200Y-123088400D01*
X122631200Y-70436992D02*
X122631200Y-101752400D01*
X121462800Y-67995800D02*
X121462800Y-69268592D01*
X121462800Y-69268592D02*
X122631200Y-70436992D01*
D16*
G36*
X121656548Y-67981658D02*
X121642405Y-67995800D01*
X122542959Y-68896354D01*
X122799443Y-68809948D01*
X122852800Y-68664109D01*
X123488698Y-71228899D01*
X124348262Y-75248621D01*
X125203463Y-79725849D01*
X125581336Y-84184754D01*
X125602803Y-84259157D01*
X125610990Y-84336160D01*
X125953078Y-85433201D01*
X126111730Y-86906993D01*
X126124741Y-86950858D01*
X128766341Y-92157858D01*
X128812146Y-92208005D01*
X129721650Y-92778142D01*
X130866755Y-93923246D01*
X130910646Y-93952573D01*
X130946115Y-93991671D01*
X131024769Y-94028828D01*
X131097095Y-94077154D01*
X131148869Y-94087453D01*
X131196600Y-94110001D01*
X132009400Y-94313201D01*
X132059434Y-94315636D01*
X132107274Y-94330499D01*
X132186444Y-94323237D01*
X132215746Y-94341605D01*
X132262925Y-94359371D01*
X132313299Y-94357382D01*
X132358930Y-94335951D01*
X132389647Y-94301773D01*
X132462492Y-94263462D01*
X132546892Y-94233220D01*
X132583994Y-94199562D01*
X132628331Y-94176244D01*
X132685670Y-94107323D01*
X132752071Y-94047085D01*
X132773469Y-94001790D01*
X132805506Y-93963281D01*
X132832105Y-93877666D01*
X132870401Y-93796600D01*
X132872836Y-93746566D01*
X132887699Y-93698726D01*
X133040099Y-92250926D01*
X133028532Y-92124834D01*
X133021278Y-91998417D01*
X132851370Y-91343059D01*
X132763982Y-90818729D01*
X132739161Y-88460727D01*
X132732314Y-88428104D01*
X132735408Y-88394914D01*
X132469553Y-85833036D01*
X132936813Y-84091434D01*
X132945877Y-84066898D01*
X134296740Y-82783578D01*
X135731472Y-81662694D01*
X135817412Y-81654637D01*
X136712638Y-83795394D01*
X136556383Y-85134725D01*
X136562547Y-85211406D01*
X136555157Y-85287979D01*
X136573539Y-85348151D01*
X136578580Y-85410862D01*
X136613617Y-85479345D01*
X136636094Y-85552920D01*
X137353088Y-86888012D01*
X138110645Y-88805578D01*
X138356830Y-92227548D01*
X138371742Y-92281816D01*
X138373603Y-92338064D01*
X139338983Y-96471872D01*
X139098549Y-99453254D01*
X138325076Y-102572097D01*
X138323666Y-102602241D01*
X138313164Y-102630534D01*
X137563214Y-107305222D01*
X136734394Y-109426025D01*
X135574059Y-111973718D01*
X135549362Y-112078711D01*
X135515535Y-112181124D01*
X135061762Y-115861726D01*
X134584769Y-118196482D01*
X134584583Y-118232453D01*
X134574036Y-118266841D01*
X134583871Y-118369942D01*
X134583335Y-118473506D01*
X134596927Y-118506807D01*
X134600343Y-118542617D01*
X134752743Y-119050617D01*
X134800307Y-119140263D01*
X134838096Y-119234450D01*
X134932894Y-119379807D01*
X135144253Y-120511200D01*
X135243098Y-123118224D01*
X135305222Y-124896532D01*
X135285821Y-126118804D01*
X134923871Y-126532462D01*
X134858424Y-126646113D01*
X134790585Y-126758361D01*
X134789437Y-126765911D01*
X134785625Y-126772530D01*
X134768651Y-126902585D01*
X134748932Y-127032239D01*
X134773277Y-127567836D01*
X134748342Y-128814603D01*
X134750757Y-128828156D01*
X134748317Y-128841707D01*
X134772796Y-130188035D01*
X134646216Y-131200669D01*
X134615006Y-131217834D01*
X115802508Y-131241984D01*
X116025323Y-126141990D01*
X116022264Y-126122111D01*
X116025946Y-126102343D01*
X116001297Y-125985862D01*
X115983188Y-125868185D01*
X115972757Y-125850994D01*
X115968593Y-125831317D01*
X115901244Y-125733135D01*
X115839481Y-125631346D01*
X115823262Y-125619453D01*
X115811887Y-125602871D01*
X115712089Y-125537934D01*
X115616077Y-125467531D01*
X115596546Y-125462751D01*
X115579687Y-125451781D01*
X114695457Y-125098090D01*
X114515054Y-125022922D01*
X114502863Y-124559646D01*
X114661233Y-122847736D01*
X124005742Y-122847736D01*
X124031361Y-123457860D01*
X124215557Y-123902548D01*
X124472041Y-123988954D01*
X125372595Y-123088400D01*
X124472041Y-122187846D01*
X124215557Y-122274252D01*
X124005742Y-122847736D01*
X114661233Y-122847736D01*
X114738895Y-122008241D01*
X124651646Y-122008241D01*
X125552200Y-122908795D01*
X125566343Y-122894653D01*
X125745948Y-123074258D01*
X125731805Y-123088400D01*
X125745948Y-123102543D01*
X125566343Y-123282148D01*
X125552200Y-123268005D01*
X124651646Y-124168559D01*
X124738052Y-124425043D01*
X125311536Y-124634858D01*
X125921660Y-124609239D01*
X126366348Y-124425043D01*
X126452753Y-124168561D01*
X126567310Y-124283118D01*
X126603788Y-124246640D01*
X126728110Y-124439841D01*
X126940310Y-124584831D01*
X127192200Y-124635840D01*
X128992200Y-124635840D01*
X129227517Y-124591562D01*
X129443641Y-124452490D01*
X129588631Y-124240290D01*
X129639640Y-123988400D01*
X129639640Y-122188400D01*
X129595362Y-121953083D01*
X129456290Y-121736959D01*
X129244090Y-121591969D01*
X128992200Y-121540960D01*
X127192200Y-121540960D01*
X126956883Y-121585238D01*
X126740759Y-121724310D01*
X126601602Y-121927974D01*
X126567310Y-121893682D01*
X126452753Y-122008239D01*
X126366348Y-121751757D01*
X125792864Y-121541942D01*
X125182740Y-121567561D01*
X124738052Y-121751757D01*
X124651646Y-122008241D01*
X114738895Y-122008241D01*
X115006986Y-119110314D01*
X115193706Y-118940568D01*
X116034931Y-118840422D01*
X116050129Y-118835472D01*
X116066100Y-118836008D01*
X116181305Y-118792752D01*
X116298342Y-118754636D01*
X116310489Y-118744247D01*
X116325449Y-118738630D01*
X116415338Y-118654575D01*
X116508874Y-118574577D01*
X116516120Y-118560333D01*
X116527793Y-118549417D01*
X116578673Y-118437358D01*
X116634474Y-118327658D01*
X116635717Y-118311723D01*
X116642324Y-118297172D01*
X116646448Y-118174182D01*
X116656022Y-118051469D01*
X116651072Y-118036271D01*
X116651608Y-118020300D01*
X116067408Y-114464300D01*
X116031742Y-114369309D01*
X116006351Y-114271059D01*
X115983423Y-114240621D01*
X115970030Y-114204951D01*
X115900727Y-114130839D01*
X115839671Y-114049784D01*
X115141333Y-113426268D01*
X113963604Y-112267233D01*
X110220454Y-107311349D01*
X110038957Y-107004373D01*
X109501375Y-105611546D01*
X109456808Y-105541197D01*
X109423886Y-105464697D01*
X108422537Y-104009611D01*
X111015048Y-104009611D01*
X111324205Y-104757829D01*
X111896160Y-105330783D01*
X112643838Y-105641246D01*
X113453411Y-105641952D01*
X114201629Y-105332795D01*
X114774583Y-104760840D01*
X115085046Y-104013162D01*
X115085151Y-103892350D01*
X121215400Y-103892350D01*
X121215400Y-105732910D01*
X121312073Y-105966299D01*
X121490702Y-106144927D01*
X121724091Y-106241600D01*
X123564650Y-106241600D01*
X123723400Y-106082850D01*
X123723400Y-103733600D01*
X123977400Y-103733600D01*
X123977400Y-106082850D01*
X124136150Y-106241600D01*
X125976709Y-106241600D01*
X126210098Y-106144927D01*
X126388727Y-105966299D01*
X126485400Y-105732910D01*
X126485400Y-104009611D01*
X132615048Y-104009611D01*
X132924205Y-104757829D01*
X133496160Y-105330783D01*
X134243838Y-105641246D01*
X135053411Y-105641952D01*
X135801629Y-105332795D01*
X136374583Y-104760840D01*
X136685046Y-104013162D01*
X136685752Y-103203589D01*
X136376595Y-102455371D01*
X135804640Y-101882417D01*
X135056962Y-101571954D01*
X134247389Y-101571248D01*
X133499171Y-101880405D01*
X132926217Y-102452360D01*
X132615754Y-103200038D01*
X132615048Y-104009611D01*
X126485400Y-104009611D01*
X126485400Y-103892350D01*
X126326650Y-103733600D01*
X123977400Y-103733600D01*
X123723400Y-103733600D01*
X121374150Y-103733600D01*
X121215400Y-103892350D01*
X115085151Y-103892350D01*
X115085752Y-103203589D01*
X114776595Y-102455371D01*
X114204640Y-101882417D01*
X113456962Y-101571954D01*
X112647389Y-101571248D01*
X111899171Y-101880405D01*
X111326217Y-102452360D01*
X111015754Y-103200038D01*
X111015048Y-104009611D01*
X108422537Y-104009611D01*
X107798286Y-103102498D01*
X107783783Y-103088387D01*
X107774751Y-103070276D01*
X107684973Y-102992247D01*
X107599733Y-102909311D01*
X107580934Y-102901824D01*
X107565659Y-102888548D01*
X106676659Y-102380547D01*
X106649439Y-102371442D01*
X106626343Y-102354403D01*
X104766051Y-101480290D01*
X121215400Y-101480290D01*
X121215400Y-103320850D01*
X121374150Y-103479600D01*
X123723400Y-103479600D01*
X123723400Y-101130350D01*
X123977400Y-101130350D01*
X123977400Y-103479600D01*
X126326650Y-103479600D01*
X126485400Y-103320850D01*
X126485400Y-101480290D01*
X126388727Y-101246901D01*
X126210098Y-101068273D01*
X125976709Y-100971600D01*
X124136150Y-100971600D01*
X123977400Y-101130350D01*
X123723400Y-101130350D01*
X123564650Y-100971600D01*
X121724091Y-100971600D01*
X121490702Y-101068273D01*
X121312073Y-101246901D01*
X121215400Y-101480290D01*
X104766051Y-101480290D01*
X104571483Y-101388867D01*
X102576927Y-100009914D01*
X101149592Y-98915623D01*
X100115324Y-97481753D01*
X99111159Y-95718342D01*
X98357552Y-93999176D01*
X98216699Y-92661074D01*
X98216500Y-92660432D01*
X98216560Y-92659761D01*
X98066439Y-91258640D01*
X98016633Y-90187812D01*
X98014508Y-90179234D01*
X98015613Y-90170469D01*
X97981281Y-90045102D01*
X97950022Y-89918912D01*
X97944777Y-89911801D01*
X97942443Y-89903278D01*
X97775040Y-89568473D01*
X97806549Y-89111601D01*
X97931529Y-88724161D01*
X98577553Y-88465752D01*
X99281269Y-88588902D01*
X100265600Y-89120441D01*
X100829237Y-90147067D01*
X101086481Y-91246198D01*
X101138767Y-91361341D01*
X101187044Y-91478237D01*
X101777462Y-92363864D01*
X102751767Y-94187563D01*
X102814212Y-94263684D01*
X102867518Y-94346466D01*
X103604118Y-95108465D01*
X103664544Y-95150339D01*
X103716178Y-95202673D01*
X105214778Y-96218673D01*
X105281383Y-96246788D01*
X105341495Y-96286954D01*
X105407758Y-96300135D01*
X105469999Y-96326408D01*
X105542291Y-96326895D01*
X105613200Y-96341000D01*
X106400600Y-96341000D01*
X106526694Y-96315918D01*
X106653460Y-96294446D01*
X106662192Y-96288966D01*
X106672305Y-96286954D01*
X106779215Y-96215519D01*
X106888103Y-96147179D01*
X106894073Y-96138774D01*
X106902646Y-96133046D01*
X106974074Y-96026145D01*
X107048527Y-95921328D01*
X107050827Y-95911277D01*
X107056554Y-95902705D01*
X107081632Y-95776628D01*
X107110311Y-95651278D01*
X107108589Y-95641111D01*
X107110600Y-95631000D01*
X107085518Y-95504904D01*
X107064046Y-95378140D01*
X107058566Y-95369408D01*
X107056554Y-95359295D01*
X106985119Y-95252385D01*
X106916779Y-95143497D01*
X106073205Y-94250301D01*
X104068913Y-91744937D01*
X103082258Y-90397311D01*
X102275274Y-88563256D01*
X102274950Y-88562793D01*
X102274827Y-88562243D01*
X101341128Y-86449135D01*
X101077012Y-85128558D01*
X101066704Y-85103745D01*
X101064669Y-85076953D01*
X100759869Y-83984753D01*
X100739011Y-83943539D01*
X100729613Y-83898309D01*
X100018413Y-82221910D01*
X100000658Y-82195822D01*
X99991550Y-82165607D01*
X99196944Y-80672711D01*
X99062212Y-80095288D01*
X99101395Y-79154891D01*
X99503200Y-78491040D01*
X100352679Y-77962475D01*
X100943043Y-77920306D01*
X101691054Y-78593516D01*
X103236669Y-80531668D01*
X104227809Y-82006292D01*
X104837872Y-83372832D01*
X104858451Y-83401889D01*
X104869747Y-83435659D01*
X106076441Y-85547374D01*
X106700511Y-86845439D01*
X106767765Y-86934926D01*
X106828006Y-87029280D01*
X108021806Y-88273880D01*
X108024724Y-88275919D01*
X108026668Y-88278899D01*
X109169668Y-89447299D01*
X109221511Y-89482770D01*
X109264521Y-89528551D01*
X109975721Y-90036551D01*
X110007719Y-90050990D01*
X110034137Y-90074102D01*
X110133051Y-90107547D01*
X110228230Y-90150497D01*
X110263315Y-90151592D01*
X110296569Y-90162836D01*
X110880770Y-90239036D01*
X110942567Y-90234911D01*
X111003779Y-90244314D01*
X111079448Y-90225775D01*
X111157183Y-90220586D01*
X111212694Y-90193128D01*
X111272849Y-90178390D01*
X111335663Y-90132304D01*
X111405495Y-90097763D01*
X111446276Y-90051148D01*
X111496208Y-90014514D01*
X111536604Y-89947900D01*
X111587903Y-89889263D01*
X111607740Y-89830595D01*
X111639854Y-89777638D01*
X111651682Y-89700636D01*
X111676637Y-89626831D01*
X111672512Y-89565030D01*
X111681914Y-89503821D01*
X111663376Y-89428158D01*
X111658187Y-89350418D01*
X111630728Y-89294903D01*
X111615990Y-89234751D01*
X108951445Y-83525012D01*
X107922544Y-81222232D01*
X107614958Y-79495020D01*
X107464998Y-76920711D01*
X107456463Y-76887907D01*
X107457944Y-76854040D01*
X107305544Y-75863439D01*
X107302279Y-75854467D01*
X107302444Y-75844922D01*
X106782364Y-72972096D01*
X106827817Y-71494863D01*
X106898403Y-71273022D01*
X107815381Y-70679683D01*
X108921633Y-70640867D01*
X109425276Y-70835826D01*
X110270005Y-71721761D01*
X111642120Y-74882526D01*
X111648953Y-74892389D01*
X111651881Y-74904026D01*
X112764759Y-77250746D01*
X112880779Y-78666193D01*
X112956645Y-79778897D01*
X112966011Y-79813488D01*
X112964995Y-79849311D01*
X113001947Y-79946205D01*
X113029048Y-80046296D01*
X113050938Y-80074669D01*
X113063708Y-80108155D01*
X113749238Y-81199926D01*
X115450837Y-83917405D01*
X115472146Y-83940015D01*
X115485648Y-83967994D01*
X116730248Y-85618994D01*
X116808278Y-85688612D01*
X116879167Y-85765488D01*
X116910886Y-85780158D01*
X116936962Y-85803423D01*
X117035693Y-85837881D01*
X117130605Y-85881778D01*
X117867205Y-86059578D01*
X117881417Y-86060154D01*
X117894557Y-86065613D01*
X118019357Y-86065743D01*
X118144006Y-86070794D01*
X118157357Y-86065887D01*
X118171586Y-86065902D01*
X118286924Y-86018269D01*
X118404030Y-85975230D01*
X118414488Y-85965586D01*
X118427637Y-85960156D01*
X118808637Y-85706156D01*
X118864062Y-85650846D01*
X118928157Y-85605873D01*
X118961171Y-85553940D01*
X119004730Y-85510472D01*
X119034770Y-85438165D01*
X119076777Y-85372085D01*
X119559376Y-84127485D01*
X119568164Y-84077358D01*
X119589097Y-84030970D01*
X119591870Y-83942147D01*
X119607215Y-83854619D01*
X119596152Y-83804946D01*
X119597740Y-83754076D01*
X119401461Y-82576401D01*
X119276426Y-79900659D01*
X119272841Y-79886202D01*
X119274452Y-79871395D01*
X118664852Y-72962595D01*
X118660910Y-72949108D01*
X118661884Y-72935092D01*
X118357930Y-70554116D01*
X118248052Y-69543240D01*
X119822800Y-69543240D01*
X120058117Y-69498962D01*
X120274241Y-69359890D01*
X120413398Y-69156226D01*
X120447690Y-69190518D01*
X120562247Y-69075961D01*
X120648652Y-69332443D01*
X121222136Y-69542258D01*
X121832260Y-69516639D01*
X122276948Y-69332443D01*
X122363354Y-69075959D01*
X121462800Y-68175405D01*
X121448658Y-68189548D01*
X121269053Y-68009943D01*
X121283195Y-67995800D01*
X121269053Y-67981658D01*
X121448658Y-67802053D01*
X121462800Y-67816195D01*
X121476943Y-67802053D01*
X121656548Y-67981658D01*
X121656548Y-67981658D01*
G37*
X121656548Y-67981658D02*
X121642405Y-67995800D01*
X122542959Y-68896354D01*
X122799443Y-68809948D01*
X122852800Y-68664109D01*
X123488698Y-71228899D01*
X124348262Y-75248621D01*
X125203463Y-79725849D01*
X125581336Y-84184754D01*
X125602803Y-84259157D01*
X125610990Y-84336160D01*
X125953078Y-85433201D01*
X126111730Y-86906993D01*
X126124741Y-86950858D01*
X128766341Y-92157858D01*
X128812146Y-92208005D01*
X129721650Y-92778142D01*
X130866755Y-93923246D01*
X130910646Y-93952573D01*
X130946115Y-93991671D01*
X131024769Y-94028828D01*
X131097095Y-94077154D01*
X131148869Y-94087453D01*
X131196600Y-94110001D01*
X132009400Y-94313201D01*
X132059434Y-94315636D01*
X132107274Y-94330499D01*
X132186444Y-94323237D01*
X132215746Y-94341605D01*
X132262925Y-94359371D01*
X132313299Y-94357382D01*
X132358930Y-94335951D01*
X132389647Y-94301773D01*
X132462492Y-94263462D01*
X132546892Y-94233220D01*
X132583994Y-94199562D01*
X132628331Y-94176244D01*
X132685670Y-94107323D01*
X132752071Y-94047085D01*
X132773469Y-94001790D01*
X132805506Y-93963281D01*
X132832105Y-93877666D01*
X132870401Y-93796600D01*
X132872836Y-93746566D01*
X132887699Y-93698726D01*
X133040099Y-92250926D01*
X133028532Y-92124834D01*
X133021278Y-91998417D01*
X132851370Y-91343059D01*
X132763982Y-90818729D01*
X132739161Y-88460727D01*
X132732314Y-88428104D01*
X132735408Y-88394914D01*
X132469553Y-85833036D01*
X132936813Y-84091434D01*
X132945877Y-84066898D01*
X134296740Y-82783578D01*
X135731472Y-81662694D01*
X135817412Y-81654637D01*
X136712638Y-83795394D01*
X136556383Y-85134725D01*
X136562547Y-85211406D01*
X136555157Y-85287979D01*
X136573539Y-85348151D01*
X136578580Y-85410862D01*
X136613617Y-85479345D01*
X136636094Y-85552920D01*
X137353088Y-86888012D01*
X138110645Y-88805578D01*
X138356830Y-92227548D01*
X138371742Y-92281816D01*
X138373603Y-92338064D01*
X139338983Y-96471872D01*
X139098549Y-99453254D01*
X138325076Y-102572097D01*
X138323666Y-102602241D01*
X138313164Y-102630534D01*
X137563214Y-107305222D01*
X136734394Y-109426025D01*
X135574059Y-111973718D01*
X135549362Y-112078711D01*
X135515535Y-112181124D01*
X135061762Y-115861726D01*
X134584769Y-118196482D01*
X134584583Y-118232453D01*
X134574036Y-118266841D01*
X134583871Y-118369942D01*
X134583335Y-118473506D01*
X134596927Y-118506807D01*
X134600343Y-118542617D01*
X134752743Y-119050617D01*
X134800307Y-119140263D01*
X134838096Y-119234450D01*
X134932894Y-119379807D01*
X135144253Y-120511200D01*
X135243098Y-123118224D01*
X135305222Y-124896532D01*
X135285821Y-126118804D01*
X134923871Y-126532462D01*
X134858424Y-126646113D01*
X134790585Y-126758361D01*
X134789437Y-126765911D01*
X134785625Y-126772530D01*
X134768651Y-126902585D01*
X134748932Y-127032239D01*
X134773277Y-127567836D01*
X134748342Y-128814603D01*
X134750757Y-128828156D01*
X134748317Y-128841707D01*
X134772796Y-130188035D01*
X134646216Y-131200669D01*
X134615006Y-131217834D01*
X115802508Y-131241984D01*
X116025323Y-126141990D01*
X116022264Y-126122111D01*
X116025946Y-126102343D01*
X116001297Y-125985862D01*
X115983188Y-125868185D01*
X115972757Y-125850994D01*
X115968593Y-125831317D01*
X115901244Y-125733135D01*
X115839481Y-125631346D01*
X115823262Y-125619453D01*
X115811887Y-125602871D01*
X115712089Y-125537934D01*
X115616077Y-125467531D01*
X115596546Y-125462751D01*
X115579687Y-125451781D01*
X114695457Y-125098090D01*
X114515054Y-125022922D01*
X114502863Y-124559646D01*
X114661233Y-122847736D01*
X124005742Y-122847736D01*
X124031361Y-123457860D01*
X124215557Y-123902548D01*
X124472041Y-123988954D01*
X125372595Y-123088400D01*
X124472041Y-122187846D01*
X124215557Y-122274252D01*
X124005742Y-122847736D01*
X114661233Y-122847736D01*
X114738895Y-122008241D01*
X124651646Y-122008241D01*
X125552200Y-122908795D01*
X125566343Y-122894653D01*
X125745948Y-123074258D01*
X125731805Y-123088400D01*
X125745948Y-123102543D01*
X125566343Y-123282148D01*
X125552200Y-123268005D01*
X124651646Y-124168559D01*
X124738052Y-124425043D01*
X125311536Y-124634858D01*
X125921660Y-124609239D01*
X126366348Y-124425043D01*
X126452753Y-124168561D01*
X126567310Y-124283118D01*
X126603788Y-124246640D01*
X126728110Y-124439841D01*
X126940310Y-124584831D01*
X127192200Y-124635840D01*
X128992200Y-124635840D01*
X129227517Y-124591562D01*
X129443641Y-124452490D01*
X129588631Y-124240290D01*
X129639640Y-123988400D01*
X129639640Y-122188400D01*
X129595362Y-121953083D01*
X129456290Y-121736959D01*
X129244090Y-121591969D01*
X128992200Y-121540960D01*
X127192200Y-121540960D01*
X126956883Y-121585238D01*
X126740759Y-121724310D01*
X126601602Y-121927974D01*
X126567310Y-121893682D01*
X126452753Y-122008239D01*
X126366348Y-121751757D01*
X125792864Y-121541942D01*
X125182740Y-121567561D01*
X124738052Y-121751757D01*
X124651646Y-122008241D01*
X114738895Y-122008241D01*
X115006986Y-119110314D01*
X115193706Y-118940568D01*
X116034931Y-118840422D01*
X116050129Y-118835472D01*
X116066100Y-118836008D01*
X116181305Y-118792752D01*
X116298342Y-118754636D01*
X116310489Y-118744247D01*
X116325449Y-118738630D01*
X116415338Y-118654575D01*
X116508874Y-118574577D01*
X116516120Y-118560333D01*
X116527793Y-118549417D01*
X116578673Y-118437358D01*
X116634474Y-118327658D01*
X116635717Y-118311723D01*
X116642324Y-118297172D01*
X116646448Y-118174182D01*
X116656022Y-118051469D01*
X116651072Y-118036271D01*
X116651608Y-118020300D01*
X116067408Y-114464300D01*
X116031742Y-114369309D01*
X116006351Y-114271059D01*
X115983423Y-114240621D01*
X115970030Y-114204951D01*
X115900727Y-114130839D01*
X115839671Y-114049784D01*
X115141333Y-113426268D01*
X113963604Y-112267233D01*
X110220454Y-107311349D01*
X110038957Y-107004373D01*
X109501375Y-105611546D01*
X109456808Y-105541197D01*
X109423886Y-105464697D01*
X108422537Y-104009611D01*
X111015048Y-104009611D01*
X111324205Y-104757829D01*
X111896160Y-105330783D01*
X112643838Y-105641246D01*
X113453411Y-105641952D01*
X114201629Y-105332795D01*
X114774583Y-104760840D01*
X115085046Y-104013162D01*
X115085151Y-103892350D01*
X121215400Y-103892350D01*
X121215400Y-105732910D01*
X121312073Y-105966299D01*
X121490702Y-106144927D01*
X121724091Y-106241600D01*
X123564650Y-106241600D01*
X123723400Y-106082850D01*
X123723400Y-103733600D01*
X123977400Y-103733600D01*
X123977400Y-106082850D01*
X124136150Y-106241600D01*
X125976709Y-106241600D01*
X126210098Y-106144927D01*
X126388727Y-105966299D01*
X126485400Y-105732910D01*
X126485400Y-104009611D01*
X132615048Y-104009611D01*
X132924205Y-104757829D01*
X133496160Y-105330783D01*
X134243838Y-105641246D01*
X135053411Y-105641952D01*
X135801629Y-105332795D01*
X136374583Y-104760840D01*
X136685046Y-104013162D01*
X136685752Y-103203589D01*
X136376595Y-102455371D01*
X135804640Y-101882417D01*
X135056962Y-101571954D01*
X134247389Y-101571248D01*
X133499171Y-101880405D01*
X132926217Y-102452360D01*
X132615754Y-103200038D01*
X132615048Y-104009611D01*
X126485400Y-104009611D01*
X126485400Y-103892350D01*
X126326650Y-103733600D01*
X123977400Y-103733600D01*
X123723400Y-103733600D01*
X121374150Y-103733600D01*
X121215400Y-103892350D01*
X115085151Y-103892350D01*
X115085752Y-103203589D01*
X114776595Y-102455371D01*
X114204640Y-101882417D01*
X113456962Y-101571954D01*
X112647389Y-101571248D01*
X111899171Y-101880405D01*
X111326217Y-102452360D01*
X111015754Y-103200038D01*
X111015048Y-104009611D01*
X108422537Y-104009611D01*
X107798286Y-103102498D01*
X107783783Y-103088387D01*
X107774751Y-103070276D01*
X107684973Y-102992247D01*
X107599733Y-102909311D01*
X107580934Y-102901824D01*
X107565659Y-102888548D01*
X106676659Y-102380547D01*
X106649439Y-102371442D01*
X106626343Y-102354403D01*
X104766051Y-101480290D01*
X121215400Y-101480290D01*
X121215400Y-103320850D01*
X121374150Y-103479600D01*
X123723400Y-103479600D01*
X123723400Y-101130350D01*
X123977400Y-101130350D01*
X123977400Y-103479600D01*
X126326650Y-103479600D01*
X126485400Y-103320850D01*
X126485400Y-101480290D01*
X126388727Y-101246901D01*
X126210098Y-101068273D01*
X125976709Y-100971600D01*
X124136150Y-100971600D01*
X123977400Y-101130350D01*
X123723400Y-101130350D01*
X123564650Y-100971600D01*
X121724091Y-100971600D01*
X121490702Y-101068273D01*
X121312073Y-101246901D01*
X121215400Y-101480290D01*
X104766051Y-101480290D01*
X104571483Y-101388867D01*
X102576927Y-100009914D01*
X101149592Y-98915623D01*
X100115324Y-97481753D01*
X99111159Y-95718342D01*
X98357552Y-93999176D01*
X98216699Y-92661074D01*
X98216500Y-92660432D01*
X98216560Y-92659761D01*
X98066439Y-91258640D01*
X98016633Y-90187812D01*
X98014508Y-90179234D01*
X98015613Y-90170469D01*
X97981281Y-90045102D01*
X97950022Y-89918912D01*
X97944777Y-89911801D01*
X97942443Y-89903278D01*
X97775040Y-89568473D01*
X97806549Y-89111601D01*
X97931529Y-88724161D01*
X98577553Y-88465752D01*
X99281269Y-88588902D01*
X100265600Y-89120441D01*
X100829237Y-90147067D01*
X101086481Y-91246198D01*
X101138767Y-91361341D01*
X101187044Y-91478237D01*
X101777462Y-92363864D01*
X102751767Y-94187563D01*
X102814212Y-94263684D01*
X102867518Y-94346466D01*
X103604118Y-95108465D01*
X103664544Y-95150339D01*
X103716178Y-95202673D01*
X105214778Y-96218673D01*
X105281383Y-96246788D01*
X105341495Y-96286954D01*
X105407758Y-96300135D01*
X105469999Y-96326408D01*
X105542291Y-96326895D01*
X105613200Y-96341000D01*
X106400600Y-96341000D01*
X106526694Y-96315918D01*
X106653460Y-96294446D01*
X106662192Y-96288966D01*
X106672305Y-96286954D01*
X106779215Y-96215519D01*
X106888103Y-96147179D01*
X106894073Y-96138774D01*
X106902646Y-96133046D01*
X106974074Y-96026145D01*
X107048527Y-95921328D01*
X107050827Y-95911277D01*
X107056554Y-95902705D01*
X107081632Y-95776628D01*
X107110311Y-95651278D01*
X107108589Y-95641111D01*
X107110600Y-95631000D01*
X107085518Y-95504904D01*
X107064046Y-95378140D01*
X107058566Y-95369408D01*
X107056554Y-95359295D01*
X106985119Y-95252385D01*
X106916779Y-95143497D01*
X106073205Y-94250301D01*
X104068913Y-91744937D01*
X103082258Y-90397311D01*
X102275274Y-88563256D01*
X102274950Y-88562793D01*
X102274827Y-88562243D01*
X101341128Y-86449135D01*
X101077012Y-85128558D01*
X101066704Y-85103745D01*
X101064669Y-85076953D01*
X100759869Y-83984753D01*
X100739011Y-83943539D01*
X100729613Y-83898309D01*
X100018413Y-82221910D01*
X100000658Y-82195822D01*
X99991550Y-82165607D01*
X99196944Y-80672711D01*
X99062212Y-80095288D01*
X99101395Y-79154891D01*
X99503200Y-78491040D01*
X100352679Y-77962475D01*
X100943043Y-77920306D01*
X101691054Y-78593516D01*
X103236669Y-80531668D01*
X104227809Y-82006292D01*
X104837872Y-83372832D01*
X104858451Y-83401889D01*
X104869747Y-83435659D01*
X106076441Y-85547374D01*
X106700511Y-86845439D01*
X106767765Y-86934926D01*
X106828006Y-87029280D01*
X108021806Y-88273880D01*
X108024724Y-88275919D01*
X108026668Y-88278899D01*
X109169668Y-89447299D01*
X109221511Y-89482770D01*
X109264521Y-89528551D01*
X109975721Y-90036551D01*
X110007719Y-90050990D01*
X110034137Y-90074102D01*
X110133051Y-90107547D01*
X110228230Y-90150497D01*
X110263315Y-90151592D01*
X110296569Y-90162836D01*
X110880770Y-90239036D01*
X110942567Y-90234911D01*
X111003779Y-90244314D01*
X111079448Y-90225775D01*
X111157183Y-90220586D01*
X111212694Y-90193128D01*
X111272849Y-90178390D01*
X111335663Y-90132304D01*
X111405495Y-90097763D01*
X111446276Y-90051148D01*
X111496208Y-90014514D01*
X111536604Y-89947900D01*
X111587903Y-89889263D01*
X111607740Y-89830595D01*
X111639854Y-89777638D01*
X111651682Y-89700636D01*
X111676637Y-89626831D01*
X111672512Y-89565030D01*
X111681914Y-89503821D01*
X111663376Y-89428158D01*
X111658187Y-89350418D01*
X111630728Y-89294903D01*
X111615990Y-89234751D01*
X108951445Y-83525012D01*
X107922544Y-81222232D01*
X107614958Y-79495020D01*
X107464998Y-76920711D01*
X107456463Y-76887907D01*
X107457944Y-76854040D01*
X107305544Y-75863439D01*
X107302279Y-75854467D01*
X107302444Y-75844922D01*
X106782364Y-72972096D01*
X106827817Y-71494863D01*
X106898403Y-71273022D01*
X107815381Y-70679683D01*
X108921633Y-70640867D01*
X109425276Y-70835826D01*
X110270005Y-71721761D01*
X111642120Y-74882526D01*
X111648953Y-74892389D01*
X111651881Y-74904026D01*
X112764759Y-77250746D01*
X112880779Y-78666193D01*
X112956645Y-79778897D01*
X112966011Y-79813488D01*
X112964995Y-79849311D01*
X113001947Y-79946205D01*
X113029048Y-80046296D01*
X113050938Y-80074669D01*
X113063708Y-80108155D01*
X113749238Y-81199926D01*
X115450837Y-83917405D01*
X115472146Y-83940015D01*
X115485648Y-83967994D01*
X116730248Y-85618994D01*
X116808278Y-85688612D01*
X116879167Y-85765488D01*
X116910886Y-85780158D01*
X116936962Y-85803423D01*
X117035693Y-85837881D01*
X117130605Y-85881778D01*
X117867205Y-86059578D01*
X117881417Y-86060154D01*
X117894557Y-86065613D01*
X118019357Y-86065743D01*
X118144006Y-86070794D01*
X118157357Y-86065887D01*
X118171586Y-86065902D01*
X118286924Y-86018269D01*
X118404030Y-85975230D01*
X118414488Y-85965586D01*
X118427637Y-85960156D01*
X118808637Y-85706156D01*
X118864062Y-85650846D01*
X118928157Y-85605873D01*
X118961171Y-85553940D01*
X119004730Y-85510472D01*
X119034770Y-85438165D01*
X119076777Y-85372085D01*
X119559376Y-84127485D01*
X119568164Y-84077358D01*
X119589097Y-84030970D01*
X119591870Y-83942147D01*
X119607215Y-83854619D01*
X119596152Y-83804946D01*
X119597740Y-83754076D01*
X119401461Y-82576401D01*
X119276426Y-79900659D01*
X119272841Y-79886202D01*
X119274452Y-79871395D01*
X118664852Y-72962595D01*
X118660910Y-72949108D01*
X118661884Y-72935092D01*
X118357930Y-70554116D01*
X118248052Y-69543240D01*
X119822800Y-69543240D01*
X120058117Y-69498962D01*
X120274241Y-69359890D01*
X120413398Y-69156226D01*
X120447690Y-69190518D01*
X120562247Y-69075961D01*
X120648652Y-69332443D01*
X121222136Y-69542258D01*
X121832260Y-69516639D01*
X122276948Y-69332443D01*
X122363354Y-69075959D01*
X121462800Y-68175405D01*
X121448658Y-68189548D01*
X121269053Y-68009943D01*
X121283195Y-67995800D01*
X121269053Y-67981658D01*
X121448658Y-67802053D01*
X121462800Y-67816195D01*
X121476943Y-67802053D01*
X121656548Y-67981658D01*
M02*
